<mxfile host="Electron" modified="2023-09-05T11:44:22.278Z" agent="Mozilla/5.0 (Windows NT 10.0; Win64; x64) AppleWebKit/537.36 (KHTML, like Gecko) draw.io/21.6.5 Chrome/114.0.5735.243 Electron/25.3.1 Safari/537.36" etag="V6XjDstlpuJnSH0cvyO_" version="21.6.5" type="device">
  <diagram name="第 1 页" id="bCZ-rS7wRd4AWGfKaELG">
    <mxGraphModel dx="819" dy="478" grid="1" gridSize="10" guides="1" tooltips="1" connect="1" arrows="1" fold="1" page="1" pageScale="1" pageWidth="827" pageHeight="1169" math="0" shadow="0">
      <root>
        <mxCell id="0" />
        <mxCell id="1" parent="0" />
        <mxCell id="nKGBb6kqhRe9rUrSOL23-5" style="edgeStyle=orthogonalEdgeStyle;rounded=0;orthogonalLoop=1;jettySize=auto;html=1;entryX=0.5;entryY=0;entryDx=0;entryDy=0;fillColor=#e1d5e7;strokeColor=#9673a6;" edge="1" parent="1" source="nKGBb6kqhRe9rUrSOL23-1" target="nKGBb6kqhRe9rUrSOL23-43">
          <mxGeometry relative="1" as="geometry">
            <mxPoint x="305" y="130" as="targetPoint" />
          </mxGeometry>
        </mxCell>
        <mxCell id="nKGBb6kqhRe9rUrSOL23-6" style="edgeStyle=orthogonalEdgeStyle;rounded=0;orthogonalLoop=1;jettySize=auto;html=1;entryX=0.5;entryY=0;entryDx=0;entryDy=0;fillColor=#e1d5e7;strokeColor=#9673a6;" edge="1" parent="1" source="nKGBb6kqhRe9rUrSOL23-1" target="nKGBb6kqhRe9rUrSOL23-47">
          <mxGeometry relative="1" as="geometry">
            <mxPoint x="465" y="130" as="targetPoint" />
            <Array as="points">
              <mxPoint x="385" y="115" />
              <mxPoint x="505" y="115" />
            </Array>
          </mxGeometry>
        </mxCell>
        <mxCell id="nKGBb6kqhRe9rUrSOL23-1" value="SBASNetwork" style="rounded=0;whiteSpace=wrap;html=1;fillColor=#e1d5e7;strokeColor=#9673a6;" vertex="1" parent="1">
          <mxGeometry x="300" y="60" width="170" height="30" as="geometry" />
        </mxCell>
        <mxCell id="nKGBb6kqhRe9rUrSOL23-43" value="Pairs" style="swimlane;fontStyle=0;childLayout=stackLayout;horizontal=1;startSize=30;horizontalStack=0;resizeParent=1;resizeParentMax=0;resizeLast=0;collapsible=1;marginBottom=0;whiteSpace=wrap;html=1;align=center;fillColor=#dae8fc;strokeColor=#6c8ebf;" vertex="1" parent="1">
          <mxGeometry x="180" y="140" width="155" height="120" as="geometry" />
        </mxCell>
        <mxCell id="nKGBb6kqhRe9rUrSOL23-44" value="Pair([datetime,datetime])" style="text;strokeColor=none;fillColor=none;align=center;verticalAlign=middle;spacingLeft=4;spacingRight=4;overflow=hidden;points=[[0,0.5],[1,0.5]];portConstraint=eastwest;rotatable=0;whiteSpace=wrap;html=1;" vertex="1" parent="nKGBb6kqhRe9rUrSOL23-43">
          <mxGeometry y="30" width="155" height="30" as="geometry" />
        </mxCell>
        <mxCell id="nKGBb6kqhRe9rUrSOL23-45" value="Pair([datetime,datetime])" style="text;strokeColor=none;fillColor=none;align=center;verticalAlign=middle;spacingLeft=4;spacingRight=4;overflow=hidden;points=[[0,0.5],[1,0.5]];portConstraint=eastwest;rotatable=0;whiteSpace=wrap;html=1;" vertex="1" parent="nKGBb6kqhRe9rUrSOL23-43">
          <mxGeometry y="60" width="155" height="30" as="geometry" />
        </mxCell>
        <mxCell id="nKGBb6kqhRe9rUrSOL23-46" value="......" style="text;strokeColor=none;fillColor=none;align=center;verticalAlign=middle;spacingLeft=4;spacingRight=4;overflow=hidden;points=[[0,0.5],[1,0.5]];portConstraint=eastwest;rotatable=0;whiteSpace=wrap;html=1;" vertex="1" parent="nKGBb6kqhRe9rUrSOL23-43">
          <mxGeometry y="90" width="155" height="30" as="geometry" />
        </mxCell>
        <mxCell id="nKGBb6kqhRe9rUrSOL23-47" value="Loops" style="swimlane;fontStyle=0;childLayout=stackLayout;horizontal=1;startSize=30;horizontalStack=0;resizeParent=1;resizeParentMax=0;resizeLast=0;collapsible=1;marginBottom=0;whiteSpace=wrap;html=1;align=center;fillColor=#dae8fc;strokeColor=#6c8ebf;" vertex="1" parent="1">
          <mxGeometry x="390" y="140" width="230" height="120" as="geometry" />
        </mxCell>
        <mxCell id="nKGBb6kqhRe9rUrSOL23-48" value="Loop([datetime,datetime,datetime])" style="text;strokeColor=none;fillColor=none;align=center;verticalAlign=middle;spacingLeft=4;spacingRight=4;overflow=hidden;points=[[0,0.5],[1,0.5]];portConstraint=eastwest;rotatable=0;whiteSpace=wrap;html=1;" vertex="1" parent="nKGBb6kqhRe9rUrSOL23-47">
          <mxGeometry y="30" width="230" height="30" as="geometry" />
        </mxCell>
        <mxCell id="nKGBb6kqhRe9rUrSOL23-49" value="Loop([datetime,datetime,datetime])" style="text;strokeColor=none;fillColor=none;align=center;verticalAlign=middle;spacingLeft=4;spacingRight=4;overflow=hidden;points=[[0,0.5],[1,0.5]];portConstraint=eastwest;rotatable=0;whiteSpace=wrap;html=1;" vertex="1" parent="nKGBb6kqhRe9rUrSOL23-47">
          <mxGeometry y="60" width="230" height="30" as="geometry" />
        </mxCell>
        <mxCell id="nKGBb6kqhRe9rUrSOL23-50" value="......" style="text;strokeColor=none;fillColor=none;align=center;verticalAlign=middle;spacingLeft=4;spacingRight=4;overflow=hidden;points=[[0,0.5],[1,0.5]];portConstraint=eastwest;rotatable=0;whiteSpace=wrap;html=1;" vertex="1" parent="nKGBb6kqhRe9rUrSOL23-47">
          <mxGeometry y="90" width="230" height="30" as="geometry" />
        </mxCell>
      </root>
    </mxGraphModel>
  </diagram>
</mxfile>
